<!-- icon666.com - MILLIONS vector ICONS FREE --><svg version="1.1" id="Capa_1" xmlns="http://www.w3.org/2000/svg" xmlns:xlink="http://www.w3.org/1999/xlink" x="0px" y="0px" viewBox="0 0 512 512" style="enable-background:new 0 0 512 512;" xml:space="preserve"><g><g><path d="M504.701,332.864l-25.194-14.844L278.574,436.41c-6.839,4.028-14.644,6.156-22.574,6.156s-15.734-2.127-22.568-6.153 L32.492,318.021L7.299,332.865C2.777,335.53,0,340.388,0,345.636c0,5.248,2.777,10.107,7.299,12.772l241.176,142.1 c2.322,1.368,4.922,2.052,7.524,2.052s5.203-0.684,7.524-2.052l241.177-142.1c4.522-2.664,7.299-7.522,7.299-12.772 S509.223,335.529,504.701,332.864z" fill="#000000" style="fill: rgb(255, 255, 255);"></path></g></g><g><g><path d="M504.701,243.228l-25.19-14.842L278.574,346.777c-6.84,4.028-14.644,6.156-22.575,6.156s-15.734-2.127-22.568-6.153 L32.489,228.386l-25.19,14.843C2.777,245.893,0,250.751,0,256c0,5.248,2.777,10.107,7.299,12.772l241.176,142.099 c2.322,1.368,4.922,2.052,7.524,2.052s5.203-0.684,7.524-2.052l241.177-142.099C509.223,266.107,512,261.249,512,256 S509.223,245.892,504.701,243.228z" fill="#000000" style="fill: rgb(255, 255, 255);"></path></g></g><g><g><path d="M504.701,153.591L263.525,11.493c-4.644-2.735-10.405-2.735-15.049,0L7.299,153.592C2.777,156.257,0,161.115,0,166.363 c0,5.248,2.777,10.107,7.299,12.772l241.176,142.099c2.322,1.368,4.922,2.052,7.524,2.052s5.203-0.684,7.524-2.052l241.177-142.1 c4.522-2.664,7.299-7.522,7.299-12.772C512,161.114,509.223,156.256,504.701,153.591z" fill="#000000" style="fill: rgb(255, 255, 255);"></path></g></g></svg>