<!-- icon666.com - MILLIONS vector ICONS FREE --><svg fill="none" viewBox="0 0 24 24" xmlns="http://www.w3.org/2000/svg"><path clip-rule="evenodd" d="m12 3.25c.4142 0 .75.33579.75.75v16c0 .4142-.3358.75-.75.75s-.75-.3358-.75-.75v-16c0-.41421.3358-.75.75-.75zm-4 3c.41421 0 .75.33579.75.75v10c0 .4142-.33579.75-.75.75s-.75-.3358-.75-.75v-10c0-.41421.33579-.75.75-.75zm8.75.75c0-.41421-.3358-.75-.75-.75s-.75.33579-.75.75v10c0 .4142.3358.75.75.75s.75-.3358.75-.75zm-12.75 2.25c.41421 0 .75.33579.75.75v4c0 .4142-.33579.75-.75.75s-.75-.3358-.75-.75v-4c0-.41421.33579-.75.75-.75zm16.75.75c0-.41421-.3358-.75-.75-.75s-.75.33579-.75.75v4c0 .4142.3358.75.75.75s.75-.3358.75-.75z" fill="rgb(0,0,0)" fill-rule="evenodd" style="fill: rgb(255, 255, 255);"></path></svg>