<!-- icon666.com - MILLIONS vector ICONS FREE --><svg id="Layer_3" viewBox="0 0 32 32" xmlns="http://www.w3.org/2000/svg" data-name="Layer 3"><path d="m14 5h-8a1 1 0 0 0 -1 1v8a1 1 0 0 0 1 1h8a1 1 0 0 0 1-1v-8a1 1 0 0 0 -1-1zm-1 8h-6v-6h6z" fill="#000000" style="fill: rgb(255, 255, 255);"></path><path d="m26 5h-8a1 1 0 0 0 -1 1v8a1 1 0 0 0 1 1h8a1 1 0 0 0 1-1v-8a1 1 0 0 0 -1-1zm-1 8h-6v-6h6z" fill="#000000" style="fill: rgb(255, 255, 255);"></path><path d="m14 17h-8a1 1 0 0 0 -1 1v8a1 1 0 0 0 1 1h8a1 1 0 0 0 1-1v-8a1 1 0 0 0 -1-1zm-1 8h-6v-6h6z" fill="#000000" style="fill: rgb(255, 255, 255);"></path><path d="m26 17h-8a1 1 0 0 0 -1 1v8a1 1 0 0 0 1 1h8a1 1 0 0 0 1-1v-8a1 1 0 0 0 -1-1zm-1 8h-6v-6h6z" fill="#000000" style="fill: rgb(255, 255, 255);"></path></svg>