<!-- icon666.com - MILLIONS vector ICONS FREE --><svg version="1.1" id="Capa_1" xmlns="http://www.w3.org/2000/svg" xmlns:xlink="http://www.w3.org/1999/xlink" x="0px" y="0px" viewBox="0 0 512.002 512.002" style="enable-background:new 0 0 512.002 512.002;" xml:space="preserve"><g><g><path d="M475.495,36.501c-48.668-48.668-127.854-48.667-176.521,0c-48.668,48.667-48.668,127.854,0,176.521 c24.333,24.334,56.297,36.501,88.261,36.501c31.963,0,63.925-12.167,88.261-36.501C524.163,164.355,524.163,85.168,475.495,36.501 z" fill="#000000" style="fill: rgb(255, 255, 255);"></path></g></g><g><g><path d="M275.341,236.654c-17.477-17.476-30.349-38.346-38.023-61.134L64.255,348.583c-23.269,23.269-26.72,58.95-10.381,85.919 L4.9,483.476c-6.526,6.525-6.526,17.105,0,23.631c3.263,3.263,7.54,4.895,11.815,4.895s8.553-1.632,11.815-4.895l48.974-48.973 c11.124,6.74,23.727,10.124,36.335,10.124c17.956,0,35.913-6.835,49.584-20.505l173.069-173.068 C313.698,267.01,292.823,254.135,275.341,236.654z M252.015,283.623l-45.26,45.262c-3.263,3.263-7.54,4.895-11.815,4.895 s-8.553-1.632-11.815-4.895c-6.526-6.525-6.526-17.105,0-23.631l45.26-45.262c6.525-6.525,17.105-6.525,23.631,0 C258.541,266.516,258.541,277.097,252.015,283.623z" fill="#000000" style="fill: rgb(255, 255, 255);"></path></g></g></svg>