<!-- icon666.com - MILLIONS vector ICONS FREE --><svg viewBox="0 0 512 512" xmlns="http://www.w3.org/2000/svg"><path d="m351.335938 256c0-52.566406-42.769532-95.335938-95.335938-95.335938s-95.335938 42.769532-95.335938 95.335938c0 33.703125 17.582032 63.375 44.054688 80.332031-26.472656 16.957031-44.054688 46.632813-44.054688 80.332031v80.335938c0 8.285156 6.71875 15 15 15h160.671876c8.28125 0 15-6.714844 15-15v-80.335938c0-33.699218-17.582032-63.375-44.054688-80.332031 26.472656-16.957031 44.054688-46.628906 44.054688-80.332031zm0 0" fill="#000000" style="fill: rgb(255, 255, 255);"></path><path d="m256 80.332031c-96.863281 0-175.664062 78.804688-175.664062 175.667969 0 48.800781 20.304687 94.707031 54.828124 127.472656 2.667969-9.710937 6.488282-19.101562 11.429688-27.914062.386719-.695313.789062-1.382813 1.1875-2.070313-23.730469-26.375-37.445312-60.957031-37.445312-97.488281 0-80.320312 65.34375-145.664062 145.664062-145.664062s145.664062 65.34375 145.664062 145.664062c.003907 36.53125-13.714843 71.117188-37.445312 97.488281.398438.6875.800781 1.375 1.1875 2.070313 4.941406 8.8125 8.761719 18.203125 11.429688 27.914062 34.523437-32.765625 54.832031-78.671875 54.828124-127.472656 0-96.863281-78.800781-175.667969-175.664062-175.667969zm0 0" fill="#000000" style="fill: rgb(255, 255, 255);"></path><path d="m437.019531 74.980469c-48.351562-48.351563-112.636719-74.980469-181.019531-74.980469s-132.667969 26.628906-181.019531 74.980469c-48.351563 48.351562-74.980469 112.640625-74.980469 181.019531 0 93.476562 51.074219 178.527344 130.664062 223.273438v-35.171876c-61.796874-41.273437-100.664062-111.480468-100.664062-188.101562 0-124.617188 101.382812-226 226-226s226 101.382812 226 226c0 76.621094-38.867188 146.828125-100.664062 188.101562v35.171876c79.589843-44.746094 130.664062-129.796876 130.664062-223.273438 0-68.378906-26.628906-132.667969-74.980469-181.019531zm0 0" fill="#000000" style="fill: rgb(255, 255, 255);"></path></svg>