<!-- icon666.com - MILLIONS vector ICONS FREE --><svg id="Layer_1" viewBox="0 0 512 512" xmlns="http://www.w3.org/2000/svg" data-name="Layer 1"><path d="m256 0c141.385 0 256 114.615 256 256s-114.615 256-256 256-256-114.615-256-256 114.615-256 256-256zm113.774 369.451v-72.93a14.155 14.155 0 1 0 -28.309 0v72.93a14.155 14.155 0 0 0 28.309 0zm-227.548-72.93v72.93a14.151 14.151 0 1 0 28.3 0v-72.93a14.172 14.172 0 0 0 -14.153-14.156 14.172 14.172 0 0 0 -14.149 14.156zm266.117-3.821h-4.443v-36.715a147.905 147.905 0 0 0 -295.81 0v36.715h-4.435a10.159 10.159 0 0 0 -10.155 10.155v60.259a10.157 10.157 0 0 0 10.158 10.155h18.471a34.462 34.462 0 0 0 68.713-3.818v-72.93a34.447 34.447 0 0 0 -62.436-20.1v-20.436a127.592 127.592 0 0 1 255.184 0v20.433a34.431 34.431 0 0 0 -27.968-14.366 34.511 34.511 0 0 0 -34.469 34.469v72.93a34.463 34.463 0 0 0 68.714 3.818h18.477a10.161 10.161 0 0 0 10.156-10.155v-60.259a10.163 10.163 0 0 0 -10.157-10.155z" fill="#006df0" fill-rule="evenodd" style="fill: rgb(237, 51, 59);"></path></svg>